# xmcd
#
# Track frame offsets:
#	150
#	14789
#	28113
#	43041
#	56789
#	74556
#	93006
#	108489
#	123199
#	141684
#	155250
#	167633
#	180313
#
# Disc length: 2633 seconds
#
# Revision: 1
# Processed by: cddbd v1.4PL0 Copyright (c) Steve Scherf et al.
# Submitted via: EasyCDDAExtractor 5.0.6
#
DISCID=b50a470d
DTITLE=Hutton Jones - In The Big Time
DYEAR=2003
DGENRE=Country
TTITLE0=You're My Last Love
TTITLE1=What's Wrong With You
TTITLE2=I Love You, I Do
TTITLE3=Big Time
TTITLE4=Summer Night, Quanah, Texas
TTITLE5=The Man Upstairs
TTITLE6=Stay In The Buggy
TTITLE7=They're Still One
TTITLE8=Anita Mae and The Cowboy
TTITLE9=Let Me Be Lonely
TTITLE10=Playin' Cowboy
TTITLE11=A Little Perspective
TTITLE12=Goodbye
EXTD=
EXTT0=
EXTT1=
EXTT2=
EXTT3=
EXTT4=
EXTT5=
EXTT6=
EXTT7=
EXTT8=
EXTT9=
EXTT10=
EXTT11=
EXTT12=
PLAYORDER=
